#!OML:ASF I:\Actors\actors\Patient Classification 1\Patient 1\Session 1\Subject1.ASF
:FULLY-SPECIFIED
:DEGREES
919
root -0.562469 17.6052 7.814 8.00923 0.283194 -7.27424
lowerback 3.04824 -0.48253 4.08575
upperback -10.479 -0.0711134 1.73533
thorax -13.0925 -0.339153 -0.372443
lowerneck -15.4122 -2.39541 -1.20143
upperneck 27.1063 -4.60646 4.9695
head 11.5382 -1.59134 1.36985
rclavicle -3.18055e-015 3.97569e-015
rhumerus -30.8306 29.0704 -94.7175
rradius 102.924
rwrist -5.93385
rhand -1.502 -47.6983
rfingers 7.12502
rthumb 24.151 283.802
lclavicle -3.18055e-015 3.97569e-015
lhumerus -32.9038 -27.5588 91.3394
lradius 96.1648
lwrist 29.9622
lhand -22.1637 2.76164
lfingers 7.12502
lthumb 4.25065 32.699
rfemur -2.79029 25.0289 23.8509
rtibia 2.26415
rfoot -12.4563 -28.1526
rtoes 4.72975
lfemur 3.75091 -42.6488 -12.6072
ltibia -3.74447
lfoot -14.763 50.0681
ltoes 6.2254
920
root -0.560504 17.605 7.81807 8.16162 0.344008 -7.36955
lowerback 2.87615 -0.538905 4.28702
upperback -10.5148 -0.139309 1.71893
thorax -13.0343 -0.393517 -0.49365
lowerneck -15.3222 -2.30283 -1.09719
upperneck 26.8902 -4.54965 5.17574
head 11.439 -1.53456 1.43507
rclavicle -1.13804e-014 3.1408e-014
rhumerus -29.619 28.5741 -94.0572
rradius 106.823
rwrist -4.25312
rhand -4.36659 -44.9886
rfingers 7.12502
rthumb 21.4019 286.173
lclavicle -1.13804e-014 3.1408e-014
lhumerus -32.7783 -26.8925 91.1027
lradius 97.9061
lwrist 29.5333
lhand -26.7007 -0.254582
lfingers 7.12502
lthumb -0.131062 29.7251
rfemur -2.82078 25.3117 23.9279
rtibia 2.08293
rfoot -12.4732 -28.4488
rtoes 5.0165
lfemur 3.73335 -43.2419 -12.5148
ltibia -3.80027
lfoot -15.2889 50.5913
ltoes 6.5399
921
root -0.55944 17.6071 7.82123 8.21911 0.452041 -7.4827
lowerback 2.9977 -0.517686 4.3962
upperback -10.6255 -0.0916899 1.68051
thorax -13.2428 -0.388372 -0.599193
lowerneck -15.2127 -2.41736 -1.05766
upperneck 26.7476 -4.81205 5.49893
head 11.3828 -1.6138 1.50876
rclavicle -8.24956e-015 1.43125e-014
rhumerus -27.8729 29.1802 -92.8111
rradius 110.241
rwrist -3.44407
rhand -7.71544 -44.3937
rfingers 7.12502
rthumb 18.1826 286.436
lclavicle -8.24956e-015 1.43125e-014
lhumerus -32.833 -26.4345 91.2583
lradius 99.382
lwrist 29.0584
lhand -29.7631 -3.54903
lfingers 7.12502
lthumb -3.08864 26.4083
rfemur -2.73542 25.6332 24.0831
rtibia 1.91606
rfoot -12.501 -28.8273
rtoes 5.27257
lfemur 3.75734 -43.5438 -12.3808
ltibia -3.90264
lfoot -15.406 50.8198
ltoes 6.60453
922
root -0.557835 17.6098 7.82554 8.24073 0.493317 -7.49076
lowerback 3.01605 -0.403846 4.47815
upperback -10.6478 0.0505399 1.46522
thorax -13.2753 -0.344015 -0.900681
lowerneck -15.257 -2.58536 -0.801121
upperneck 26.6638 -5.21251 5.80922
head 11.382 -1.73106 1.51985
rclavicle 4.96962e-016 4.77083e-015
rhumerus -26.7162 29.5099 -91.9714
rradius 112.628
rwrist -1.7126
rhand -12.849 -41.2119
rfingers 7.12502
rthumb 13.2388 289.229
lclavicle 4.96962e-016 4.77083e-015
lhumerus -32.8389 -26.3368 91.3906
lradius 100.571
lwrist 29.199
lhand -31.4092 -7.81543
lfingers 7.12502
lthumb -4.67825 22.1129
rfemur -2.63629 25.8717 24.1131
rtibia 1.7682
rfoot -12.4881 -29.1027
rtoes 5.3627
lfemur 3.84411 -43.7933 -12.4245
ltibia -3.99778
lfoot -15.3393 51.0638
ltoes 6.71547
923
root -0.554324 17.6117 7.83098 8.28701 0.46092 -7.44528
lowerback 2.9389 -0.335459 4.43543
upperback -10.6593 0.123339 1.35576
thorax -13.2352 -0.311592 -1.00772
lowerneck -15.4206 -2.69719 -0.74714
upperneck 26.75 -5.4923 6.12611
head 11.4712 -1.80686 1.58599
rclavicle -9.83984e-015 1.43125e-014
rhumerus -26.1981 30.5051 -91.4627
rradius 114.126
rwrist -0.0280547
rhand -19.8734 -37.3764
rfingers 7.12502
rthumb 6.46208 292.742
lclavicle -9.83984e-015 1.43125e-014
lhumerus -33.0238 -26.0159 91.679
lradius 101.408
lwrist 29.9054
lhand -32.0515 -12.5839
lfingers 7.12502
lthumb -5.29844 17.3299
rfemur -2.63599 25.9192 24.0274
rtibia 1.68005
rfoot -12.4002 -29.144
rtoes 5.15261
lfemur 3.8752 -43.9786 -12.5219
ltibia -4.01356
lfoot -15.5019 51.2582
ltoes 6.9292
